# xmcd
#
# Track frame offsets: 
#        150
#        12746
#        29134
#        38328
#        53167
#        66491
#        78967
#        91538
#        100782
#        114802
#        126369
#        137874
#        153916
#        168853
#
# Disc length: 2436 seconds
#
# Revision: 2
# Processed by: cddbd v1.5.2PL0 Copyright (c) Steve Scherf et al.
# Submitted via: ExactAudioCopy v0.99pb5
#
DISCID=ac09820e
DTITLE=Various Artist - Country Hits [CD 1v3)
DYEAR=1900
DGENRE=country
TTITLE0=Bowling, Bynum - Lucille
TTITLE1=Silvester Waerny, Enzo Laweca - Daddy, Please Come Bak Home
TTITLE2=T.Overland - Kentucky Buggy
TTITLE3=Ferry Frahamer, Ralf Kordel - Nur eine alte Country-Melodie
TTITLE4=L. Weiss - Rhinestone Cowboy
TTITLE5=Sherrill, Wynetto - Stand By Your Man
TTITLE6=Braddock - Georgia In A Jug
TTITLE7=H. Williams - Jambalaya
TTITLE8=Ralph Kordel, Enzo Laweca - Too Much Whiskey And No Love
TTITLE9=Cowboy From Kentucky Town
TTITLE10=Cline, Miller - I've Loved And Lost Again
TTITLE11=T.Astor - Welcome To Nashville
TTITLE12=SilvesterWaerny, Enzo Laweca - Cottonfields
TTITLE13=J. Hartford - Gentle On My Mind
EXTD=Magic
EXTT0=
EXTT1=
EXTT2=
EXTT3=
EXTT4=
EXTT5=
EXTT6=
EXTT7=
EXTT8=
EXTT9=
EXTT10=
EXTT11=
EXTT12=
EXTT13=
PLAYORDER=
